<?xml version="1.0" encoding="UTF-8" standalone="no"?>
<!-- Created with Inkscape (http://www.inkscape.org/) -->

<svg
   xmlns:dc="http://purl.org/dc/elements/1.1/"
   xmlns:cc="http://creativecommons.org/ns#"
   xmlns:rdf="http://www.w3.org/1999/02/22-rdf-syntax-ns#"
   xmlns:svg="http://www.w3.org/2000/svg"
   xmlns="http://www.w3.org/2000/svg"
   xmlns:xlink="http://www.w3.org/1999/xlink"
   xmlns:sodipodi="http://sodipodi.sourceforge.net/DTD/sodipodi-0.dtd"
   xmlns:inkscape="http://www.inkscape.org/namespaces/inkscape"
   width="155.00151mm"
   height="289.74811mm"
   viewBox="0 0 155.00151 289.74811"
   version="1.1"
   id="svg8"
   inkscape:version="0.92.3 (2405546, 2018-03-11)"
   sodipodi:docname="Happy fizz.svg">
  <title
     id="title905">Happy Fizz</title>
  <defs
     id="defs2">
    <linearGradient
       inkscape:collect="always"
       id="linearGradient866">
      <stop
         style="stop-color:#ff7f2a;stop-opacity:1;"
         offset="0"
         id="stop862" />
      <stop
         style="stop-color:#ff7f2a;stop-opacity:0;"
         offset="1"
         id="stop864" />
    </linearGradient>
    <radialGradient
       inkscape:collect="always"
       xlink:href="#linearGradient866"
       id="radialGradient868"
       cx="81.074661"
       cy="152.10738"
       fx="81.074661"
       fy="152.10738"
       r="73.837135"
       gradientTransform="matrix(1,0,0,1.8959939,0,-136.28728)"
       gradientUnits="userSpaceOnUse" />
  </defs>
  <sodipodi:namedview
     id="base"
     pagecolor="#ffffff"
     bordercolor="#666666"
     borderopacity="1.0"
     inkscape:pageopacity="0.0"
     inkscape:pageshadow="2"
     inkscape:zoom="0.24814453"
     inkscape:cx="-731.61174"
     inkscape:cy="916.93073"
     inkscape:document-units="mm"
     inkscape:current-layer="layer1"
     showgrid="false"
     fit-margin-top="0"
     fit-margin-left="0"
     fit-margin-right="0"
     fit-margin-bottom="0"
     inkscape:window-width="1600"
     inkscape:window-height="845"
     inkscape:window-x="0"
     inkscape:window-y="27"
     inkscape:window-maximized="1" />
  <metadata
     id="metadata5">
    <rdf:RDF>
      <cc:Work
         rdf:about="">
        <dc:format>image/svg+xml</dc:format>
        <dc:type
           rdf:resource="http://purl.org/dc/dcmitype/StillImage" />
        <dc:title>Happy Fizz</dc:title>
        <dc:date>2022</dc:date>
        <dc:creator>
          <cc:Agent>
            <dc:title>Doodleguy</dc:title>
          </cc:Agent>
        </dc:creator>
        <dc:rights>
          <cc:Agent>
            <dc:title>public domain</dc:title>
          </cc:Agent>
        </dc:rights>
        <cc:license
           rdf:resource="http://creativecommons.org/publicdomain/zero/1.0/" />
      </cc:Work>
      <cc:License
         rdf:about="http://creativecommons.org/publicdomain/zero/1.0/">
        <cc:permits
           rdf:resource="http://creativecommons.org/ns#Reproduction" />
        <cc:permits
           rdf:resource="http://creativecommons.org/ns#Distribution" />
        <cc:permits
           rdf:resource="http://creativecommons.org/ns#DerivativeWorks" />
      </cc:License>
    </rdf:RDF>
  </metadata>
  <g
     inkscape:groupmode="layer"
     id="layer2"
     inkscape:label="bund"
     transform="translate(-4.5296684,-3.5005696)" />
  <g
     inkscape:label="Layer 1"
     inkscape:groupmode="layer"
     id="layer1"
     transform="translate(-4.5296684,-3.5005696)">
    <g
       id="g903">
      <path
         transform="scale(0.26458333)"
         inkscape:connector-curvature="0"
         id="path37"
         d="M 422.54889,45.806617 C 361.15417,52.363826 300.13584,63.686002 238.15692,63.402052 196.42938,64.246748 154.65474,63.708626 112.94637,63.972694 92.721123,85.928923 70.552508,107.80814 61.976835,137.34923 35.547491,201.33901 22.398906,271.1967 29.071828,340.40652 47.168834,532.96047 46.11096,726.74143 63.686232,919.31704 c 1.93022,34.46591 20.241236,65.08139 37.300278,94.09686 24.57371,34.9568 68.79626,46.0291 106.06271,61.9562 30.53203,12.636 62.66145,22.9427 96.14703,21.4484 13.00914,0.8334 27.21418,-0.415 38.58915,7.1896 62.16504,-6.9451 125.70516,-21.1157 178.98073,-55.2341 26.86273,-20.9611 50.61546,-47.949 64.7273,-78.74069 -0.96158,-48.47993 1.9831,-97.68768 -6.56124,-145.58835 -5.22933,-7.57579 -15.46206,2.37927 -22.18286,2.17359 -81.8612,27.23695 -167.31912,51.31938 -254.48773,45.13454 -29.99293,-4.47203 -61.24359,-8.57917 -88.5675,-22.32979 -5.2093,-11.83641 -1.98898,-26.61856 -3.5183,-39.47264 -2.30307,-79.09648 1.1558,-158.55612 -7.70956,-237.31208 -2.066,-21.04368 6.4383,-50.23651 31.25935,-51.96774 66.5865,-3.8515 133.77702,0.45466 199.76793,-11.43749 38.78824,-6.72392 78.76958,-9.40198 116.30448,-21.73449 18.42207,-7.03783 13.74618,-30.85375 13.92747,-46.24657 C 560.60469,380.91991 552.75567,320.93608 547.28259,260.77926 542.77085,203.39581 522.2923,147.59882 487.45641,101.67439 472.28644,83.302502 460.68304,59.642232 438.86136,48.234795 c -5.15643,-2.07429 -10.79977,-2.586226 -16.31247,-2.428178 z"
         style="opacity:1;vector-effect:none;fill:#ffcc00;fill-opacity:1;stroke:none;stroke-width:3.51078081;stroke-linecap:round;stroke-linejoin:miter;stroke-miterlimit:4;stroke-dasharray:none;stroke-dashoffset:0;stroke-opacity:0" />
      <path
         inkscape:connector-curvature="0"
         id="path37-3"
         d="M 111.79939,12.119672 C 95.555376,13.8546 79.410942,16.850259 63.012353,16.775131 51.971941,16.998623 40.919068,16.856245 29.883727,16.926113 24.532464,22.735365 18.667018,28.524241 16.398037,36.340321 9.4052735,53.27095 5.9263771,71.754131 7.691921,90.065896 c 4.788166,50.946564 4.50827,102.217774 9.158394,153.170074 0.510705,9.11911 5.355494,17.21945 9.869032,24.89646 6.501795,9.24898 18.202346,12.17853 28.062427,16.39257 8.078266,3.34328 16.579175,6.07026 25.438902,5.67489 3.442001,0.2205 7.200418,-0.1098 10.210046,1.90225 16.447828,-1.83756 33.259488,-5.58686 47.355308,-14.61402 7.10744,-5.54595 13.39201,-12.6865 17.12577,-20.83347 -0.25442,-12.82698 0.52469,-25.84653 -1.736,-38.52025 -1.38359,-2.00443 -4.091,0.62951 -5.86921,0.57509 -21.65911,7.20645 -44.26985,13.57826 -67.333207,11.94185 -7.935629,-1.18322 -16.204033,-2.2699 -23.433484,-5.90809 -1.378294,-3.13172 -0.526251,-7.04283 -0.930884,-10.4438 -0.609354,-20.92761 0.305806,-41.95131 -2.039821,-62.78882 -0.546629,-5.56781 1.703467,-13.29175 8.270703,-13.7498 17.617678,-1.01904 35.39517,0.12029 52.855263,-3.02617 10.26272,-1.77904 20.84111,-2.48761 30.77222,-5.75058 4.87418,-1.8621 3.63701,-8.16339 3.68498,-12.23608 -0.82571,-15.96294 -2.90243,-31.833658 -4.35051,-47.75015 -1.19373,-15.182705 -6.61202,-29.945658 -15.82901,-42.096497 -4.01372,-4.860895 -7.08379,-11.121008 -12.85744,-14.139226 -1.36431,-0.548823 -2.85744,-0.684272 -4.31601,-0.642455 z"
         style="opacity:1;vector-effect:none;fill:url(#radialGradient868);fill-opacity:1;stroke:none;stroke-width:0.9288941;stroke-linecap:round;stroke-linejoin:miter;stroke-miterlimit:4;stroke-dasharray:none;stroke-dashoffset:0;stroke-opacity:0" />
      <path
         transform="scale(0.26458333)"
         inkscape:connector-curvature="0"
         id="path870"
         d="m 480.06802,582.08193 c -3.83046,2.32313 -3.63447,8.47379 -5.69858,12.19602 -5.5256,16.30622 -9.82373,34.70675 -23.42381,46.41083 -6.41989,2.53554 -13.01073,-2.78795 -19.11303,-4.38132 -6.34745,-2.46138 -12.64208,-5.29458 -18.99992,-7.57264 -10.79505,9.20957 -19.4995,21.7118 -32.5974,27.79418 -11.72485,3.14121 -24.04731,-0.3663 -35.82054,-1.79064 -12.74296,-1.86741 -24.30846,-7.93695 -34.37623,-15.78709 -5.25486,-3.35 -13.03185,-5.97407 -18.7682,-2.54231 -2.83142,4.83122 -2.97948,11.0486 -7.02086,15.38174 -7.01194,8.92493 -16.03583,18.70988 -27.76466,20.40929 -12.49791,-0.54672 -19.65444,-13.22207 -30.8717,-16.85557 -4.65455,-0.35705 -3.14529,6.54702 -3.97461,9.43795 -1.95254,38.40822 -1.74758,76.95733 -0.15369,115.37708 0.94338,3.64189 -0.55498,9.26466 2.54427,11.85951 13.65457,-1.40396 26.12117,-8.37626 39.0597,-12.62382 19.2489,-8.04517 40.55333,-5.18299 60.82412,-4.81488 17.60067,0.47784 35.34784,6.24027 52.87298,2.53905 9.72256,-3.08847 15.99813,-12.20409 25.78798,-15.31488 26.85661,-10.76768 56.92475,-11.35414 85.18801,-6.78271 19.13847,3.68859 33.44438,18.16515 50.57708,26.44072 12.31947,6.46696 24.03991,14.09723 33.8385,24.02956 2.36462,2.7541 7.35555,2.6874 7.8473,-1.55057 3.43041,-20.91604 1.25356,-42.32304 1.12398,-63.42042 -1.9841,-45.47841 -2.83651,-91.10664 -7.97758,-136.36706 -1.23552,-4.34861 -0.56909,-10.77388 -4.73435,-13.53208 -6.12642,5.02158 -9.61265,13.1541 -15.43158,18.78164 -3.75498,3.71365 -8.40408,10.54981 -14.472,7.01529 -20.98111,-7.858 -38.07876,-22.9855 -57.23731,-34.12042 -0.39254,-0.13526 -0.80889,-0.24713 -1.22787,-0.21645 z"
         style="opacity:1;vector-effect:none;fill:#a02c2c;fill-opacity:1;stroke:none;stroke-width:1.75539041;stroke-linecap:round;stroke-linejoin:miter;stroke-miterlimit:4;stroke-dasharray:none;stroke-dashoffset:0;stroke-opacity:0" />
      <path
         transform="scale(0.26458333)"
         inkscape:connector-curvature="0"
         id="path872"
         d="m 458.42103,763.41445 c -19.0917,0.32318 -38.63353,0.78624 -56.92641,6.83589 -6.92914,2.46985 -15.31201,6.84436 -15.94746,15.12003 -0.26164,4.26308 0.20935,9.65544 4.00925,12.28158 10.24715,2.61411 18.91052,9.22233 26.82503,15.99399 2.6212,2.72022 6.34956,5.33151 6.94415,9.2815 -1.29613,1.0775 -3.24516,-0.9377 -4.48347,-1.49744 -8.00591,-5.57505 -14.35177,-13.40287 -22.86924,-18.25657 -8.64971,-2.69542 -17.06674,-6.0502 -25.55755,-9.21589 -18.14699,-6.07502 -37.07415,-9.51041 -55.94943,-12.43113 -12.00322,-1.51653 -24.2788,-2.57871 -36.31543,-0.91007 -16.59163,3.51399 -31.97649,11.03734 -47.24912,18.16903 -5.61502,2.61287 -11.24762,6.93739 -12.13302,13.49665 -1.63687,10.53479 -0.6308,21.26843 -0.9386,31.88312 13.64755,4.64128 27.44413,9.53894 41.5181,13.0244 28.2429,5.86714 57.28262,6.41306 86.02814,6.06553 43.28767,-0.93491 86.69799,-5.67458 128.5203,-17.20433 28.19732,-7.58956 56.39363,-15.49266 83.68468,-25.94524 3.34751,-1.73047 7.95467,-2.52666 9.90246,-6.07023 0.53574,-4.26542 -3.11197,-7.78374 -5.68001,-10.75049 -12.602,-12.23421 -28.31874,-20.7174 -44.11764,-28.08575 -14.39135,-6.61311 -29.85411,-11.37373 -45.80743,-11.57895 -4.48308,-0.18643 -8.97086,-0.22241 -13.4573,-0.20563 z"
         style="opacity:1;vector-effect:none;fill:#ffaaaa;fill-opacity:1;stroke:none;stroke-width:0.8776952;stroke-linecap:round;stroke-linejoin:miter;stroke-miterlimit:4;stroke-dasharray:none;stroke-dashoffset:0;stroke-opacity:0" />
      <path
         transform="scale(0.26458333)"
         inkscape:connector-curvature="0"
         id="path874"
         d="m 288.9173,528.46986 c -19.59445,1.80915 -39.22698,3.44709 -58.70822,6.26734 -4.10423,0.81592 -8.4812,1.02512 -12.32108,2.76212 -1.36021,3.15947 -0.99825,6.83573 -1.37398,10.21331 -0.79062,20.57015 -0.52343,41.17682 0.21608,61.74454 0.52077,7.50028 0.79121,15.31126 3.79876,22.31192 2.33004,4.54786 8.02934,6.07789 10.18014,10.78261 1.74334,3.29992 1.30061,7.39108 3.84095,10.35337 4.96715,6.51417 12.01834,11.47133 19.73902,14.16022 3.30808,0.75952 7.3064,1.43671 10.08274,-1.05467 7.10272,-5.64626 12.22331,-13.44595 16.33219,-21.44418 6.51327,-13.48382 6.69432,-28.82276 7.51408,-43.4729 0.73278,-24.13053 1.17422,-48.27496 1.34215,-72.41497 -0.0414,-0.3556 -0.44915,-0.17188 -0.64283,-0.20871 z"
         style="opacity:1;vector-effect:none;fill:#ffffff;fill-opacity:1;stroke:none;stroke-width:0.62062424;stroke-linecap:round;stroke-linejoin:miter;stroke-miterlimit:4;stroke-dasharray:none;stroke-dashoffset:0;stroke-opacity:0" />
      <path
         transform="scale(0.26458333)"
         inkscape:connector-curvature="0"
         id="path876"
         d="m 387.99991,526.17684 c -19.84179,5.54543 -40.66407,4.87939 -61.08345,5.33649 -7.58407,0.0769 -15.16817,0.15214 -22.75225,0.22839 -0.45309,5.15013 -0.0123,10.63962 -0.0659,15.92283 0.40347,18.49003 0.2762,37.00579 1.39429,55.47141 0.90265,9.84033 1.46047,20.31606 6.7422,28.97297 5.45308,8.20482 15.4069,11.59372 24.5291,13.84751 15.31299,3.36873 31.31611,4.18894 46.81618,1.64166 4.46778,-0.77984 9.33082,-2.91289 10.89679,-7.54465 3.0441,-8.41114 2.72629,-17.55359 3.1109,-26.36734 0.26584,-25.60204 -0.89904,-51.19193 -1.48484,-76.78284 -0.30183,-4.15203 0.0803,-8.40675 -0.73488,-12.49628 -2.36584,0.1502 -4.9513,1.259 -7.36813,1.76985 z"
         style="opacity:1;vector-effect:none;fill:#ffffff;fill-opacity:1;stroke:none;stroke-width:0.62062424;stroke-linecap:round;stroke-linejoin:miter;stroke-miterlimit:4;stroke-dasharray:none;stroke-dashoffset:0;stroke-opacity:0" />
      <path
         transform="scale(0.26458333)"
         inkscape:connector-curvature="0"
         id="path878"
         d="m 462.95782,514.89611 c -14.36371,1.9786 -28.63223,4.73385 -42.74668,8.0517 -4.39605,1.36389 -9.62222,2.09157 -12.75188,5.80659 -1.20962,1.30572 -1.09829,2.86121 -0.36535,4.39941 3.28579,12.31721 3.97654,25.14999 5.133,37.80612 1.23077,13.89639 1.28802,27.97715 4.14613,41.67579 0.97924,4.94321 3.87971,9.63094 8.57204,11.79533 6.93331,3.52761 14.98091,6.88131 22.85837,4.74726 6.03355,-1.9976 9.54618,-8.17349 11.09707,-14.00369 3.04299,-12.1728 4.03926,-24.74696 5.25824,-37.20342 1.52611,-19.09251 2.21683,-38.29151 1.38497,-57.43368 -0.35158,-1.65962 -0.0178,-5.65176 -2.58591,-5.64141 z"
         style="opacity:1;vector-effect:none;fill:#ffffff;fill-opacity:1;stroke:none;stroke-width:0.62062424;stroke-linecap:round;stroke-linejoin:miter;stroke-miterlimit:4;stroke-dasharray:none;stroke-dashoffset:0;stroke-opacity:0" />
      <path
         transform="scale(0.26458333)"
         inkscape:connector-curvature="0"
         id="path880"
         d="m 560.58433,498.18894 c -12.61375,1.00769 -24.95391,4.09145 -37.29108,6.7677 -11.95393,2.92799 -24.07721,5.51904 -35.57011,9.99909 -5.1415,2.08384 -10.61158,5.89605 -11.149,11.9093 -0.80917,8.06767 2.17048,15.8824 4.20495,23.56034 3.13048,11.9207 9.32584,22.8409 17.3038,32.17879 8.27848,9.67613 18.16937,18.7515 30.4465,22.88218 5.07929,1.32813 10.76365,1.54446 15.68519,-0.50369 6.83949,-3.21598 10.86747,-10.24484 13.61479,-16.97293 4.40857,-13.33764 5.69238,-27.46174 6.91941,-41.38146 0.85482,-13.54236 1.60619,-27.18135 0.40751,-40.72357 -0.50196,-2.61484 -0.4912,-6.33184 -3.26196,-7.64688 -0.42867,-0.10005 -0.87355,-0.0808 -1.31,-0.0689 z"
         style="opacity:1;vector-effect:none;fill:#ffffff;fill-opacity:1;stroke:none;stroke-width:0.62062424;stroke-linecap:round;stroke-linejoin:miter;stroke-miterlimit:4;stroke-dasharray:none;stroke-dashoffset:0;stroke-opacity:0" />
      <path
         transform="scale(0.26458333)"
         inkscape:connector-curvature="0"
         id="path882"
         d="m 334.4214,22.509272 c -20.95526,0.844271 -41.7657,3.767318 -62.65202,5.556854 -32.03611,3.272581 -64.35679,5.545771 -95.78757,12.905366 -6.97919,2.07733 -15.00985,3.512663 -20.02066,9.261118 -1.53362,1.551366 0.76278,2.979286 2.25206,2.877804 16.49502,1.729568 33.14253,1.048367 49.70484,1.311114 44.50554,-0.04319 89.04148,-0.76348 133.46875,-3.530185 18.39269,-1.225021 36.53088,-4.714608 54.76423,-7.274239 7.7826,-1.545003 16.19918,-2.153358 23.11689,-6.337072 1.53543,-1.881081 -1.76312,-3.398049 -3.16018,-3.927588 -13.87292,-4.724027 -28.59783,-6.231087 -43.05785,-8.155254 -12.82631,-1.397743 -25.71694,-2.620754 -38.62849,-2.687918 z"
         style="opacity:1;vector-effect:none;fill:#ffcc00;fill-opacity:1;stroke:none;stroke-width:0.8776952;stroke-linecap:round;stroke-linejoin:miter;stroke-miterlimit:4;stroke-dasharray:none;stroke-dashoffset:0;stroke-opacity:0" />
      <path
         inkscape:connector-curvature="0"
         id="path34"
         d="m 72.922425,291.55098 c -8.121995,-1.62227 -28.067987,-8.86804 -36.73246,-13.3438 -7.219013,-3.72915 -13.35896,-11.26797 -17.008621,-20.88379 -1.851504,-4.87814 -4.176959,-10.69082 -5.167768,-12.91714 -1.234176,-2.77317 -1.791547,-8.75801 -1.770093,-19.00567 0.01915,-8.22682 -0.557132,-24.36564 -1.276462,-35.86405 C 10.247739,178.03813 9.0419126,154.09098 8.2873847,136.32069 7.5328569,118.55041 6.3725239,99.836104 5.7087931,94.733319 3.2573444,75.886031 4.5348115,62.431817 10.422004,45.093533 14.816376,32.151823 15.814271,30.445276 24.374875,21.232147 34.493906,10.34178 41.598898,7.9970745 75.240361,4.4458234 92.631271,2.6100262 106.80712,3.4803478 113.21088,6.7769773 c 12.241,6.3016647 30.36925,35.2654977 33.85068,54.0838167 1.80357,9.748995 4.27887,39.749476 5.18069,62.789476 0.31367,8.01405 1.10459,17.99201 1.7576,22.17323 1.48492,9.50787 2.40519,26.71331 3.2531,60.8181 0.36395,14.63437 1.16566,29.81304 1.78183,33.7304 0.61618,3.91734 0.6656,9.13871 0.10969,11.60294 -0.95839,4.24936 -10.7693,18.76876 -16.52748,24.45931 -3.68659,3.6433 -17.31793,10.16868 -23.44758,11.22447 -2.78753,0.48012 -8.69182,1.97601 -13.12067,3.32416 -9.239132,2.81243 -20.889727,3.01227 -33.126426,0.5681 z m 27.874945,-1.09511 c 2.43909,-0.22891 6.57282,-1.07773 9.18607,-1.88651 2.61332,-0.80874 6.88954,-2.10335 9.50286,-2.87689 15.21707,-4.5042 25.35085,-12.17993 32.8547,-24.88526 3.14564,-5.32613 3.17059,-5.59479 2.26421,-24.3906 -0.50403,-10.45281 -1.38383,-19.00513 -1.95504,-19.00513 -0.57121,0 -5.77226,1.64185 -11.55793,3.64856 -20.34361,7.05595 -37.97151,10.30087 -55.802477,10.27199 -9.694214,-0.0143 -26.870781,-3.9278 -29.709549,-6.76657 -0.492243,-0.49224 -0.746578,-13.56412 -0.565178,-29.04859 0.194427,-16.62078 -0.262428,-31.91715 -1.115557,-37.34108 -1.09305,-6.94811 -1.085148,-10.27897 0.03352,-13.66558 2.357156,-7.14221 4.923298,-8.04069 21.524486,-7.53633 13.940662,0.42334 26.452045,-0.5012 44.346505,-3.27766 30.31174,-4.70311 29.15409,-4.10594 29.1029,-15.01149 -0.0239,-4.58616 -0.59784,-12.61472 -1.28077,-17.84125 -0.68289,-5.226573 -1.7871,-16.915046 -2.4537,-25.974407 -1.69424,-23.023246 -6.68511,-35.745819 -21.24861,-54.166139 -7.85564,-9.936002 -6.45978,-9.650876 -29.460664,-6.018455 -11.676027,1.843939 -22.205172,2.505515 -40.067306,2.517631 l -24.229215,0.01436 -5.264598,5.711394 C 19.430409,28.863904 19.18886,29.331676 13.327383,45.347573 9.3342206,56.258437 6.4412421,76.4355 7.5772481,85.451711 9.1529634,97.958112 10.958495,125.5793 12.185919,155.95776 c 2.354475,58.27088 4.498193,91.09086 6.206943,95.02829 9.941173,22.90735 10.728409,23.57544 41.226583,34.98767 9.475651,3.54574 12.832571,4.20909 19.857638,3.92411 4.649855,-0.18869 8.805692,0.22555 9.235207,0.92055 0.429558,0.69496 2.326789,0.99086 4.216179,0.65751 1.889378,-0.3333 5.430812,-0.79331 7.869861,-1.02212 z m 18.37215,-65.19521 c 11.46152,-2.56705 29.19719,-8.11553 30.67957,-9.59786 1.54229,-1.5423 -4.99666,-6.90535 -12.55511,-10.29738 -6.13501,-2.75323 -9.40664,-3.40562 -16.53486,-3.29711 -12.39923,0.18868 -18.69467,2.22303 -18.69467,6.04093 0,1.63189 0.6247,2.96706 1.38818,2.96706 2.11308,0 8.74814,5.0502 8.74814,6.65852 0,0.77982 -1.59914,-0.11445 -3.55369,-1.98684 -1.95451,-1.87257 -4.00648,-3.40466 -4.55992,-3.40466 -0.55341,0 -2.8029,-0.79696 -4.998868,-1.77101 -2.195919,-0.97404 -8.363547,-2.47194 -13.705817,-3.32866 -10.189236,-1.63399 -12.296081,-1.30649 -22.861335,3.5537 -4.32455,1.98937 -4.740699,2.62791 -4.770534,7.31991 l -0.03352,5.14042 7.910712,2.62911 c 10.511619,3.49355 36.504322,3.18955 53.540902,-0.62613 z m 34.32305,-32.23978 c -1.21971,-31.02863 -2.04061,-38.85673 -3.76531,-35.90514 -0.77866,1.33258 -2.4232,3.48038 -3.65449,4.77283 -2.10824,2.21297 -2.47765,2.2292 -6.33524,0.27824 -2.25305,-1.13936 -5.91143,-3.42972 -8.12981,-5.08962 -2.21832,-1.6599 -4.28877,-3.01802 -4.60095,-3.01802 -0.31224,0 -1.20219,2.4232 -1.9777,5.38494 -0.77549,2.9617 -2.43052,6.69019 -3.67776,8.28549 -2.20612,2.82187 -2.40012,2.84528 -7.14311,0.86357 l -4.87536,-2.03707 -4.19952,4.07035 c -4.03525,3.9111 -4.48588,4.03666 -11.51866,3.21011 -4.593975,-0.53995 -8.305934,-1.78725 -9.969429,-3.35008 -3.047178,-2.86266 -6.921674,-3.2961 -6.921674,-0.77431 0,2.72408 -5.959216,8.42082 -8.808809,8.42082 -1.427022,0 -3.782455,-1.18786 -5.234235,-2.63964 -1.451829,-1.45184 -3.019835,-2.25832 -3.484399,-1.79222 -1.158274,1.1621 -1.11187,34.91777 0.04884,35.63524 0.512261,0.31654 3.94178,-0.71947 7.621132,-2.30237 6.985079,-3.00514 11.513395,-3.30774 24.788642,-1.65655 7.071767,0.87955 8.276676,0.6994 10.769892,-1.61034 6.27767,-5.81579 26.22572,-6.81096 32.8502,-1.63888 1.59512,1.24542 5.21906,3.44144 8.05318,4.88001 2.83407,1.43861 5.8973,3.51255 6.80712,4.60881 3.71288,4.47376 4.16562,1.96615 3.35731,-18.59631 z M 73.487362,171.79379 c 2.141995,-3.64632 2.642764,-6.86259 2.829048,-18.17078 l 0.226512,-13.74025 -9.095707,0.89508 c -5.002648,0.49229 -9.380786,1.16446 -9.729221,1.49373 -0.348627,0.32947 -0.557707,6.04959 -0.464994,12.71185 0.135044,9.71993 0.573269,12.33966 2.217322,13.25974 1.126859,0.63063 2.048852,1.94119 2.048852,2.91237 0,2.22086 5.093492,5.88432 7.533687,5.41846 1.007569,-0.19251 3.003169,-2.34346 4.434646,-4.7802 z m 29.758298,-1.18304 c 1.89586,-1.19974 2.14641,-4.55599 1.63956,-21.96051 l -0.28685,-9.84372 -3.48436,0.9356 c -1.91639,0.51455 -7.333028,0.95307 -12.036904,0.97438 l -8.552562,0.0383 0.126425,10.76988 c 0.161384,13.76107 0.94929,16.35509 5.588225,18.39829 4.416498,1.94527 14.382046,2.34796 17.006466,0.68724 z m 17.882,-7.20009 c 1.66925,-4.3904 2.91027,-27.08997 1.48105,-27.08997 -0.61378,0 -4.3756,0.65464 -8.35957,1.4547 -5.87723,1.18035 -7.08037,1.83762 -6.37834,3.4844 0.47602,1.11633 1.14319,6.67702 1.48286,12.35709 0.5353,8.95055 0.97741,10.50171 3.31617,11.63441 4.58262,2.21942 7.12453,1.66622 8.45783,-1.84063 z m 26.07953,-7.13187 c 2.06063,-3.98482 3.33,-22.5864 1.65565,-24.26288 -0.39365,-0.39412 -5.66773,0.50585 -11.72014,2.00001 -12.16639,3.00356 -12.34425,3.24055 -9.51559,12.68183 1.93244,6.44977 9.32026,13.69676 13.96298,13.69676 2.65416,0 3.9979,-0.98459 5.6171,-4.11572 z M 94.462191,12.963615 c 1.742166,-0.271048 6.160969,-0.923286 9.819579,-1.449674 3.65857,-0.526388 6.65196,-1.373148 6.65196,-1.8816261 0,-1.6628725 -18.667557,-4.1628795 -25.569692,-3.4243461 C 81.657102,6.6044833 72.352267,7.5194843 64.686647,8.2411125 50.160315,9.6085143 41.246344,11.706117 41.246344,13.75698 c 0,1.11072 45.316715,0.435304 53.215847,-0.793365 z"
         style="fill:#000000;stroke-width:1.26704395" />
    </g>
  </g>
</svg>
